<svg xmlns="http://www.w3.org/2000/svg" viewBox="0 0 425.1 525.66"><defs><style>.cls-1{fill-rule:evenodd;}</style></defs><title>Asset 1</title><g id="Layer_2" data-name="Layer 2"><g id="elements"><path class="cls-1" d="M245.09,411.51a59.24,59.24,0,0,1,3.48-5c1.22-1.44,2.5-2.58,1.4-4.77-.36-.72.23-1.91.44-3.29-3,1.66-4.27.14-4.87-2.65h-.87c-1,1.7-2,3.38-2.91,5.12s-1.29,3.47-2.38,4.86a7.76,7.76,0,0,1-10.74,1.83c-2.9-1.79-4.53-.92-5.19,2.23a128.46,128.46,0,0,1-3.7,14.25c-.77,2.31-2.68,4.23-4,6.36-1.7,2.7-3.14,5.6-5.09,8.1a26,26,0,0,1-5.43,5c-2.45,1.76-7.6.34-9-2.23a1.57,1.57,0,0,0-.49-.64c-4.95-2.9-6.42-8.48-9.73-12.64-1.11-1.39-2-3.11-3.47-4-2.22-1.44-4.37.28-6.34,1.17-2.82,1.28-5.34,3.3-8.22,4.36-2.54.92-2.39,2.9-2.95,4.72a47.34,47.34,0,0,1-2.3,7.15c-.84,1.71-2.56,3-3.72,4.55a15.87,15.87,0,0,0-1.78,3.51c-1.13,2.86-2.14,5.77-3.25,8.63-.25.64-.77,1.15-1.08,1.77a10.43,10.43,0,0,0-1.09,3.3c6.57-2.48,11.33-8.22,18.45-9.17.81,2.44.84,3.75-1.89,4.73-1.75.63-2.7,3.25-4.23,4.74-3.72,3.6-7.63,7-11.35,10.58-3.88,3.77-7.15,8-7.56,13.67-.16,2.23-1.65,4.59.31,6.8,2.4,2.69,4.82,5.38,7,8.23a11.78,11.78,0,0,1,1.9,4.29c.11.44-1,1.65-1.61,1.72a37.8,37.8,0,0,1-6,0c-1.9-.1-3.78-.21-4.59-2.59-.19-.56-1.77-.63-2.64-.91-1.87,4.4-4.16,7.61-9.07,8-.88.07-1.62,1.48-2.49,2.2s-1.91,2-3,2.14c-4.92.61-9,3.28-13.54,4.87a39.82,39.82,0,0,1-5.15,1.09c-.1.25-.16.94-.54,1.21-.67.48-1.61,1.08-2.26.92a2.32,2.32,0,0,1-1-2.06c.87-3.25,1.38-6.71,4.35-9,.64-.49.94-1.42,1.78-2.74l-12.53-1.55c-2.68-.34-5.35-.88-8-1-3.32-.11-6.65.15-10,.26-.54,0-1.34.33-1.59.08-2.3-2.28-5.59-1.44-8.17-2.73-.73-.37-1.91-1.35-1.8-1.62.4-1,1.11-2.42,1.95-2.62A63.52,63.52,0,0,1,90,501.05c4,.44,8.21-.48,12.32-.83.29,0,.53-.47.77-.7a2.13,2.13,0,0,0,0-.6c-.43-1-.89-1.93-1.33-2.89a13.39,13.39,0,0,1,3.44-1.15c3.26-.14,6.46-.05,9.5,1.7,2.35,1.35,6.25-.31,7.5-2.75s2.58-4.81,3.6-7.33c1.32-3.24,2.44-6.56,3.48-9.89,1.57-5,3-10,4.44-15.05a32,32,0,0,0,.57-3.69c-4.44,0-8.68.05-12.92-.06-.75,0-1.47-.74-2.2-1.16-.46-.26-.95-.84-1.35-.77-2.64.44-3.91-1.49-5.45-3-2.53-2.42-5-5-7.68-7.15-.83-.66-2.57-.16-4.69-.21,1,5,1.7,9.22,2.8,13.3.54,2,2.23,3.73,2.75,5.75.6,2.36.49,4.91.69,7.38l-1.29.42-3-4.47-2,.77c-.93-.51-2.11-.81-2.69-1.57a8.52,8.52,0,0,1-1.69-3.75,39.4,39.4,0,0,1-.07-5.76c-5.75-.22-7.6,4.06-9.56,8a101.3,101.3,0,0,0-4.39,10.35,12.73,12.73,0,0,0-.28,4.34,5,5,0,0,1-2.36,4.57,4,4,0,0,0-1.29,2.63c-.19,2,0,4,0,5.86-2.41,1.08-3.43.1-3.62-1.95s-.21-4.19-.23-6.29c0-3.23,0-6.46,0-9.7-4.49-1-4.67-.64-4.1,4,.48,4,2,7.84.77,12.12-.82,2.86,2.4,3.46,4,4.44-.73,1-1.5,2.11-2.39,3.36-2.75-1.8-5.61-3.34-7-7-1.07-2.79-3.23-5.16-4.87-7.74a3.32,3.32,0,0,1-.56-1.51c-.16-3.71-.37-7.43-.36-11.14,0-5.06,3.23-8.88,5.37-13.1,1.2-2.37,2.28-5.15,4.23-6.73,4-3.25,5.49-8.35,9.21-11.66A79.65,79.65,0,0,1,87,433.42c5.84-3.87,11.94-7.34,17.76-11.24,3.48-2.34,6.5-5.34,10-7.71,1.64-1.13,1.2-2.15.8-3.46-1.89-6.16-6.15-10.49-10.94-14.5-3.68-3.09-7.1-6.49-10.73-9.65-1.79-1.56-3.93-2.73-5.64-4.36-1.3-1.23-2-3.06-3.24-4.38-2.54-2.7-5.28-5.19-7.87-7.83-4.59-4.67-9.09-9.43-13.71-14.07-2.1-2.12-4.49-4-6.55-6.12-1.49-1.56-2.61-3.47-4-5.17a67.43,67.43,0,0,0-4.55-5.41A112.66,112.66,0,0,1,32.64,319.4c-4.91-7.88-10.31-15.46-15-23.43-2.07-3.47-3.19-7.55-4.44-11.45a123.47,123.47,0,0,1-4.21-15,96.85,96.85,0,0,1-1.16-14.06,23.46,23.46,0,0,0-1.68-8.16c-3.24-8-6.57-16.1-6-25.11.34-6,.31-11.92.65-17.88a84.41,84.41,0,0,1,1.35-12.62c1.17-5.58,1.82-11.39,5.28-16.26a4.84,4.84,0,0,0,.48-1.29c1.91-5.72,3.66-11.5,5.77-17.14,1.21-3.21,3-6.18,4.53-9.27,1.73-3.58,3.37-7.12,3.57-11.25.17-3.59,1-7.14,1.47-10.71a23.77,23.77,0,0,0,0-3H18.53c-2-4.08-.18-7.47,1.8-10.89.55-.94,1.36-2.44,1-3.1-2.58-4.62-.72-9.29-.49-13.93.06-1.09-.16-2.2-.07-3.28a28.14,28.14,0,0,1,.65-3.74c.55-2.45,1.08-4.9,1.76-7.32s1.13-5.17,2.52-7.2a20,20,0,0,0,2.92-5.7,3.45,3.45,0,0,1,4.23-2.73c.47-1.7.64-3.5,1.47-4.93A10.54,10.54,0,0,1,38,56.19c1.45-.82,3.18-.75,3.6,1.75a14,14,0,0,0,2.07,4.87c4.56-7.85,3.94-25,13.16-31.08.55,1.51,2,3.39,1.52,4.49-2,4.83,0,9.65-.53,14.43-.05.52,0,1.05-.05,1.57-.21,1.88,1.93,6,3.48,5.82,1.4-.16,2.81-1.51,3.92-2.63Q70.61,49.83,75.86,44c2.13-2.37,4-4.93,6-7.44,15.09-19.27,7.83-2.53,4.2,7.31C85.44,45.61,84.24,47.22,84,49a31.64,31.64,0,0,0,0,7.47c.09.85.33,2.09,1.21,2.51a1.68,1.68,0,0,0,.61.15c-.14.94-.47,3.18-.78,5.39-.38,2.81-.26,2.25-.26,2.28-.18.82-.39,1.36-.15,1.93a1.9,1.9,0,0,0,.8.85c-.79,4.06-.24,5.21.37,5.56s1.71-.33,5.29-1.94c2.7-1.21,4.07-1.82,4.78-1.68,3,.59,5.66,6.84,3.87,11.49-.71,1.84-2.53,3.21-6.18,6-2.7,2-5.42,4-9.31,4.82a18.64,18.64,0,0,1-3.71.45c-2.29.05-4.58.12-6.87.14-.32,0-.62-.34-1-.41-.75-.14-1.52-.2-2.28-.3a7.41,7.41,0,0,0,.43,2.69c1.09,1.81,2.45,3.46,3.68,5.18.36.52.51,1.41,1,1.59,3.09,1.22,3.54,4.62,5.62,6.61a60.46,60.46,0,0,0,5.22,4.18c1.59,1.2,3.32,2.23,4.84,3.52,3.26,2.73,6.84,5.24,9.5,8.48,2.51,3.06,5.51,5.29,8.47,7.74,2.53,2.11,4.37,5,6.66,7.44,1.7,1.82,3.71,3.35,5.45,5.13,3,3.11,6.43,6,8.9,9.54,4.08,5.79,7.49,12,11.28,18,1.92,3,4.16,5.86,6,8.91,1.46,2.37,2.51,5,3.88,7.44,2.86,5.11,5.74,10.21,8.75,15.23,4.21,7,7.77,14.25,9.08,22.44.72,4.54,1.51,5.38,6.14,5.41a66.47,66.47,0,0,0,13.62-.83c2.56-.51,4.78-2.84,7.12-4.39,2.08-1.38,3.93-3.35,6.2-4.1,3-1,5.13-2.6,5.92-5.56s3.12-2.14,4.76-2.22c2.36-3.32,1.51-6.45.44-9.58-1.35-3.9-3.11-7.39-2.44-12.09s-1-9.57-2-14.3c-.73-3.44-2.21-6.72-3-10.16s-1.25-6.93-1.71-10.43c-.41-3.18-.64-6.4-.95-9.6l.78-.17q2.1,4.88,4.22,9.75l.81-.09a29.43,29.43,0,0,0-.31-3.89c-.87-4-1.94-8-2.77-12a4.69,4.69,0,0,1,.71-3c.45,2.19.89,4.37,1.34,6.56l.91-.08c.71-5.39,2.75-10.65,1.66-16.21a18.49,18.49,0,0,1,1.3-11.49c1.35-2.94,1.59-5.89,1.78-9,.13-2.22,1.17-4.44,2.05-6.56a33.83,33.83,0,0,1,2.8-5.11c2.8-4.46,5.74-8.83,8.49-13.32a20.58,20.58,0,0,0,2-4.77c.9-3,2.06-5.74,5.31-7,.54-.21.91-1.06,1.19-1.69.67-1.53,1.2-2.8,3.28-3.3,1.08-.26,1.55-2.65,2.52-3.9,2.65-3.41,5.35-6.78,8.14-10.07,1.49-1.76,2.79-3.89,5.53-4,.17,0,.4-.39.48-.63,1.62-5.18,7.14-7,9.75-11,3.23-5,9.33-6.24,12.42-11.15.72-1.13,2.95-1.3,4.47-1.92l5.62-2.33c1-.4,1.95-.81,2.95-1.15.65-.22,1.39-.23,2-.51,3.92-1.76,7.82-3.56,11.72-5.36q4.66-2.14,9.3-4.31c.25-.11.44-.4.69-.44,6.49-1.25,12.4-4.74,19.19-4.86,5-.09,10.07.34,14.84-.36,6.25-.91,12,.3,17.78,1.64,4.56,1.06,9.3,2.48,12.28,6.47-3.61,0-7.15-.2-10.67,0-5.18.35-10.34,1-15.52,1.54-5.45.55-10.91,1.06-16.54,1.6.07.23.18.65.22.83a183,183,0,0,0-36.53,20.14c5.22,5.69-.11,9.58-1.78,14.13,2.67-1.15,5.3-2.46,8.06-3.41,2.19-.76,4.53-1,6.79-1.58a11.19,11.19,0,0,0,2-.79c2.81-1.28,5.5-3.11,8.45-3.7,2.16-.42,4.75.49,7,1.31,4.06,1.5,4,1.88,1.86,5.65-1.17,2-2.13,4.17-3.11,6.1.85,3.67,4.43,5,6.64,7.6s4.7,5.3,6.83,8.12c1.86,2.46,3.28,5.26,5.16,7.71.74.95,2.16,1.41,3.32,2a17.12,17.12,0,0,0,2.36.74c2.2-2,4.58-1.71,8.45,1.25,1.09.84,2.13,1.74,3.14,2.68,5,4.7,3.91,13.19-2,16.8-3.92,2.39-7.68,5-11.51,7.56.07.31.15.62.22.93,2.92-.41,6-.33,8.72-1.36a10.21,10.21,0,0,1,8.65.7,65.38,65.38,0,0,1,11.57,7.22c2.2,1.77,4.34,4.23,3.82,7.73a28.66,28.66,0,0,0-.31,5.7c0,.67.84,1.46,1.49,1.9a11.32,11.32,0,0,1,3.15,2.34l-6.25-1.91c16.9,8.54,32.38,18.54,43,34.91a11.1,11.1,0,0,1-3.06-.64c-1.49-.83-3.62-1.66-4.08-3-1.29-3.7-4.6-4.6-7.31-6.36-2.5-1.63-5-3.23-7.39-4.74a4.49,4.49,0,0,1-1.8-.13c-3.82-2-7.59-4.14-11.62-6,5.15,6.35,5.75,14.34,9.09,21.78l-2.59-.2.34.85c.38.89,1.28,2,1.05,2.65-1.59,4.65,1.23,8,3.06,11.71s4.38,7.24,4.9,11.09c.84,6.17,4.77,11.29,5.12,17.44.31,5.36.23,10.76.39,16.14.05,1.62-.08,3.43.57,4.83,2.54,5.49.9,10.92.15,16.38a9.41,9.41,0,0,1-1.22,3.63c-.06-1-.13-2-.19-3.07-2.08,5.22-1.74,11.3-6,16.3-.82-1.8-1.51-3.33-2.19-4.86-1.12-2.49-2-5.16-3.44-7.41a11,11,0,0,0-4.37-3.47c-4.83-2.36-9.76-4.5-14.69-6.64-.6-.26-1.41,0-2.78,0,1.93,4.15,3.64,8,5.53,11.78a33.36,33.36,0,0,0,3.14,4.81c5,6.71,6.77,14.44,7.44,22.58a69.16,69.16,0,0,0,1.48,7.75c.73,3.66,1.34,7.35,2.24,11,1.45,5.89,0,11.44-1.85,16.91-.93,2.72-2.67,2.89-4.32.47-2.24-3.3-4.24-6.75-6.51-10.39-.42,1.07-.75,2.12-1.22,3.1-.82,1.72-2.33,2.34-3.29.54-2.07-3.89-3.78-8-5.46-12a17.07,17.07,0,0,1-.69-4c-3.89.78-3.33-3.85-5.89-4.64-1.31,1.43-1.33,2.68-.43,4.88,1.56,3.81,2.15,8,2.9,12.14.13.67-1,1.55-1.54,2.4-.16,1.81,0,4-.59,5.88-1.53,4.85-3.46,9.58-5.1,14.4-.59,1.72-1.92,2.27-3.16,1.66-1-.47-2.2-2.21-2-3,1.17-3.8-2.65-5.59-3.15-8.64a1.34,1.34,0,0,0-1.09-.72c-3.12.69-4-1.61-5.17-3.65-.28-.49-.94-.76-1.43-1.13-1.94,2.71-3.53,3.11-6.47,1.58-1.91-1-3.75-2.16-6.22-3.59.41,2.16.66,3.8,1,5.41a9,9,0,0,1-3.52,9.54c-2.32,1.63-4.35.11-6.35-.77a8.57,8.57,0,0,1-2.27-2c-2.85-2.81-2.84-2.82-6.91-.8l2.41,1.56c-.46.18-.79.22-.94.39-2.6,3-5.71,2.69-9.16,1.81-.86-.22-2.16,1.27-3.58,2.19-2.86-1.2-2.79-1.18-4.28,2.39-2.87,6.88-6.09,13.63-8.63,20.63-1.49,4.11-1.94,8.6-2.9,12.9-.31,1.41-.77,2.78-1.24,4.46l-.94-4.5c-3.71,6.69-6.92,13.14-10.73,19.21a189.14,189.14,0,0,1-12.75,17.34c2.47-5.33,5.35-10.26,5.54-16.55.18-5.95,2.24-11.85,3.48-17.77l-1-.38a13.42,13.42,0,0,0-1.14,1.78c-2.2,4.9-4.28,9.86-6.54,14.72-1.82,3.91-4.38,7.46-4.62,12a2.93,2.93,0,0,1-3.36,2.82c-.63-.05-1.38.83-2,1.37-1.41,1.24-2.78,2.51-4.13,3.81-.85.82-.7.87-1.34,1.54A20.55,20.55,0,0,1,245.09,411.51Z"/><path d="M11.21,73.26c1.3,6.09,18,19.8,41.17,15,2.45-.5,4.83-1.1,7.13-1.76-9.13-2.2-31.23-7.38-37.79-7.78,0,0,.07-1,.16-2.53a45.91,45.91,0,0,0-6-7,8,8,0,0,1,.42.77S9.9,67.17,11.21,73.26Z"/><path d="M99.67,80.22s-2-5.25-4.62-2.41c-1.82,1.94-14.74,11.55-31.61,16.48,9.24-1.15,22.68-3.06,29-5.11,8.26-2.66,8.83-8.52,6.94-12A19.47,19.47,0,0,1,99.67,80.22Z"/><path d="M88.05,42.23c1.5-10,12.22-20.56,5.23-27.41S40.94-2.26,31.44.44,14.93,6.4,18.33,14.1c2.82,6.37,3.89,33.26,4.18,42.37,7.17-.26,45.41-1,62.06,12.17C85.36,62.19,87,49.47,88.05,42.23Z"/><path d="M99.67,80.22a19.47,19.47,0,0,0-.27-3c-.37-2.14-1.22-4.75-3.21-5.44-1.43-.49-5.07,1.34-10.43,4l-.28-6.37c-.3-.25-.6-.51-.91-.75C67.92,55.46,29.68,56.21,22.51,56.47l-1.17.05c1.26,3.45.81,14.64.54,19.7-.09,1.55-.16,2.53-.16,2.53,6.56.4,28.66,5.58,37.79,7.78-2.3.66-4.68,1.26-7.13,1.76-23.22,4.77-39.87-8.94-41.17-15s5.05-3.32,5.05-3.32a8,8,0,0,0-.42-.77C12.27,63.24,4.42,66.08,4.66,71c.24,5.15,5.55,22.77,33.4,25.85a65.3,65.3,0,0,0,25.38-2.59c16.87-4.93,29.79-14.54,31.61-16.48C97.71,75,99.67,80.22,99.67,80.22Z"/></g></g></svg>